{
	"asset":{
		"generator":"Khronos glTF Blender I/O v3.6.27",
		"version":"2.0"
	},
	"scene":0,
	"scenes":[
		{
			"name":"Scene",
			"nodes":[
				0
			]
		}
	],
	"nodes":[
		{
			"mesh":0,
			"name":"Cube"
		}
	],
	"materials":[
		{
			"doubleSided":true,
			"name":"Material",
			"pbrMetallicRoughness":{
				"baseColorFactor":[
					0.7681514024734497,
					0.7681514024734497,
					0.7681514024734497,
					1
				],
				"metallicFactor":0,
				"roughnessFactor":0.5
			}
		},
		{
			"doubleSided":true,
			"name":"Material.001",
			"pbrMetallicRoughness":{
				"baseColorFactor":[
					0.02624121680855751,
					0.07618539035320282,
					0.34191444516181946,
					1
				],
				"metallicFactor":0,
				"roughnessFactor":0.5
			}
		},
		{
			"doubleSided":true,
			"name":"Material.002",
			"pbrMetallicRoughness":{
				"baseColorFactor":[
					0.043735042214393616,
					0.12743769586086273,
					0.4125427007675171,
					1
				],
				"metallicFactor":0,
				"roughnessFactor":0.5
			}
		},
		{
			"doubleSided":true,
			"name":"Material.003",
			"pbrMetallicRoughness":{
				"baseColorFactor":[
					0.009134056977927685,
					0.009134056977927685,
					0.009134056977927685,
					1
				],
				"metallicFactor":0,
				"roughnessFactor":0.5
			}
		},
		{
			"doubleSided":true,
			"name":"Material.004",
			"pbrMetallicRoughness":{
				"baseColorFactor":[
					0.018848657608032227,
					0.018848657608032227,
					0.018848657608032227,
					1
				],
				"metallicFactor":0,
				"roughnessFactor":0.5
			}
		},
		{
			"doubleSided":true,
			"name":"Material.005",
			"pbrMetallicRoughness":{
				"baseColorFactor":[
					1,
					1,
					1,
					1
				],
				"metallicFactor":0,
				"roughnessFactor":0.5
			}
		}
	],
	"meshes":[
		{
			"name":"Cube",
			"primitives":[
				{
					"attributes":{
						"POSITION":0,
						"NORMAL":1
					},
					"indices":2,
					"material":0
				},
				{
					"attributes":{
						"POSITION":3,
						"NORMAL":4
					},
					"indices":5,
					"material":1
				},
				{
					"attributes":{
						"POSITION":6,
						"NORMAL":7
					},
					"indices":8,
					"material":2
				},
				{
					"attributes":{
						"POSITION":9,
						"NORMAL":10
					},
					"indices":11,
					"material":3
				},
				{
					"attributes":{
						"POSITION":12,
						"NORMAL":13
					},
					"indices":14,
					"material":4
				},
				{
					"attributes":{
						"POSITION":15,
						"NORMAL":16
					},
					"indices":17,
					"material":5
				}
			]
		}
	],
	"accessors":[
		{
			"bufferView":0,
			"componentType":5126,
			"count":12,
			"max":[
				2.905001640319824,
				3,
				0.9050016403198242
			],
			"min":[
				-0.9000003933906555,
				3,
				-2.8999996185302734
			],
			"type":"VEC3"
		},
		{
			"bufferView":1,
			"componentType":5126,
			"count":12,
			"type":"VEC3"
		},
		{
			"bufferView":2,
			"componentType":5123,
			"count":18,
			"type":"SCALAR"
		},
		{
			"bufferView":3,
			"componentType":5126,
			"count":12,
			"max":[
				3.0000016689300537,
				2.9000000953674316,
				1.0000005960464478
			],
			"min":[
				-0.9000003933906555,
				-0.9000000357627869,
				-2.899998426437378
			],
			"type":"VEC3"
		},
		{
			"bufferView":4,
			"componentType":5126,
			"count":12,
			"type":"VEC3"
		},
		{
			"bufferView":5,
			"componentType":5123,
			"count":18,
			"type":"SCALAR"
		},
		{
			"bufferView":6,
			"componentType":5126,
			"count":12,
			"max":[
				3.0000016689300537,
				2.9000000953674316,
				1.0000016689300537
			],
			"min":[
				-0.9000003933906555,
				-0.9000000357627869,
				-2.899998426437378
			],
			"type":"VEC3"
		},
		{
			"bufferView":7,
			"componentType":5126,
			"count":12,
			"type":"VEC3"
		},
		{
			"bufferView":8,
			"componentType":5123,
			"count":18,
			"type":"SCALAR"
		},
		{
			"bufferView":9,
			"componentType":5126,
			"count":24,
			"max":[
				2.905001640319824,
				2.9000000953674316,
				0.905000627040863
			],
			"min":[
				-1.0000003576278687,
				-0.9000000357627869,
				-2.999999523162842
			],
			"type":"VEC3"
		},
		{
			"bufferView":10,
			"componentType":5126,
			"count":24,
			"type":"VEC3"
		},
		{
			"bufferView":11,
			"componentType":5123,
			"count":36,
			"type":"SCALAR"
		},
		{
			"bufferView":12,
			"componentType":5126,
			"count":28,
			"max":[
				2.905001640319824,
				2.9000000953674316,
				0.9050016403198242
			],
			"min":[
				-1.0000003576278687,
				-1,
				-2.999999523162842
			],
			"type":"VEC3"
		},
		{
			"bufferView":13,
			"componentType":5126,
			"count":28,
			"type":"VEC3"
		},
		{
			"bufferView":14,
			"componentType":5123,
			"count":42,
			"type":"SCALAR"
		},
		{
			"bufferView":15,
			"componentType":5126,
			"count":312,
			"max":[
				3.0000016689300537,
				3,
				1.0000016689300537
			],
			"min":[
				-1.0000003576278687,
				-1,
				-2.999999523162842
			],
			"type":"VEC3"
		},
		{
			"bufferView":16,
			"componentType":5126,
			"count":312,
			"type":"VEC3"
		},
		{
			"bufferView":17,
			"componentType":5123,
			"count":1056,
			"type":"SCALAR"
		}
	],
	"bufferViews":[
		{
			"buffer":0,
			"byteLength":144,
			"byteOffset":0,
			"target":34962
		},
		{
			"buffer":0,
			"byteLength":144,
			"byteOffset":144,
			"target":34962
		},
		{
			"buffer":0,
			"byteLength":36,
			"byteOffset":288,
			"target":34963
		},
		{
			"buffer":0,
			"byteLength":144,
			"byteOffset":324,
			"target":34962
		},
		{
			"buffer":0,
			"byteLength":144,
			"byteOffset":468,
			"target":34962
		},
		{
			"buffer":0,
			"byteLength":36,
			"byteOffset":612,
			"target":34963
		},
		{
			"buffer":0,
			"byteLength":144,
			"byteOffset":648,
			"target":34962
		},
		{
			"buffer":0,
			"byteLength":144,
			"byteOffset":792,
			"target":34962
		},
		{
			"buffer":0,
			"byteLength":36,
			"byteOffset":936,
			"target":34963
		},
		{
			"buffer":0,
			"byteLength":288,
			"byteOffset":972,
			"target":34962
		},
		{
			"buffer":0,
			"byteLength":288,
			"byteOffset":1260,
			"target":34962
		},
		{
			"buffer":0,
			"byteLength":72,
			"byteOffset":1548,
			"target":34963
		},
		{
			"buffer":0,
			"byteLength":336,
			"byteOffset":1620,
			"target":34962
		},
		{
			"buffer":0,
			"byteLength":336,
			"byteOffset":1956,
			"target":34962
		},
		{
			"buffer":0,
			"byteLength":84,
			"byteOffset":2292,
			"target":34963
		},
		{
			"buffer":0,
			"byteLength":3744,
			"byteOffset":2376,
			"target":34962
		},
		{
			"buffer":0,
			"byteLength":3744,
			"byteOffset":6120,
			"target":34962
		},
		{
			"buffer":0,
			"byteLength":2112,
			"byteOffset":9864,
			"target":34963
		}
	],
	"buffers":[
		{
			"byteLength":11976,
			"uri":"marmelab.bin"
		}
	]
}
